<svg id="twitter_ico" xmlns="http://www.w3.org/2000/svg" width="120.5" height="120.5" viewBox="0 0 120.5 120.5">
  <path id="パス_1" data-name="パス 1" d="M60.25,0A60.25,60.25,0,1,0,120.5,60.25,60.25,60.25,0,0,0,60.25,0Zm1.159,51.163c.02,0,.039,0,.059.006a12.071,12.071,0,0,1,20.557-11,24.113,24.113,0,0,0,6.385-2.241c.419-.2.839-.406,1.252-.629a12.043,12.043,0,0,1-3.8,5.538,11.039,11.039,0,0,1-1.489,1.022c.036,0,.072-.012.108-.017-.035.022-.065.052-.1.073a24.147,24.147,0,0,0,5.675-1.4c.4-.139.807-.28,1.207-.436a24.539,24.539,0,0,1-5.972,6.18q.035.776.035,1.561c0,15.942-12.134,34.324-34.325,34.324a34.146,34.146,0,0,1-18.493-5.42,24.568,24.568,0,0,0,2.878.168,24.172,24.172,0,0,0,12.328-3.375,25.645,25.645,0,0,0,2.653-1.733c-.023,0-.044-.006-.067-.007.022-.017.046-.032.068-.049a11.892,11.892,0,0,1-11.235-8.373,11.389,11.389,0,0,0,4.559-.039c.282-.04.566-.072.844-.118-.037-.008-.069-.024-.106-.031.038-.01.079-.013.117-.024A12.072,12.072,0,0,1,34.87,53.313c0-.046,0-.091,0-.137l.006-.013a12.014,12.014,0,0,0,4.29,1.4c.379.063.758.121,1.137.155-.026-.017-.048-.039-.074-.056.036,0,.07.008.105.01a12.009,12.009,0,0,1-4.1-15.366c.127-.242.24-.489.385-.723A34.255,34.255,0,0,0,58.458,50.855c.979.142,1.961.269,2.954.327C61.411,51.176,61.411,51.169,61.409,51.163Z" fill="#3c6d98"/>
</svg>
